<svg class="border shadow-md" viewBox="0 0 626.5600000000001 469.92" style="width: 626.56px; height: 469.92px;" xmlns="http://www.w3.org/2000/svg" preserveAspectRatio="none"><rect class="bg" id="bg" x="0" y="0" width="626.5600000000001" height="469.92" fill="#ffffff"/><circle cx="67" cy="472" r="94" stroke="none" fill="#1CAC78" stroke-width="10" opacity="0.5"/><circle cx="385.37" cy="390.37" r="58.74" stroke="none" fill="#1CAC78" stroke-width="10" opacity="0.5"/><circle cx="300.37" cy="386.37" r="58.74" stroke="none" fill="#4FFFB0" stroke-width="10" opacity="0.5"/><circle cx="432.5" cy="359.5" r="115" stroke="none" fill="#EFEBE0" stroke-width="10" opacity="0.5"/><circle cx="84.5" cy="283.5" r="79" stroke="none" fill="#1CAC78" stroke-width="10" opacity="0.5"/><circle cx="209.37" cy="32.370000000000005" r="58.74" stroke="none" fill="#1CAC78" stroke-width="10" opacity="0.5"/><circle cx="264.37" cy="297.37" r="58.74" stroke="none" fill="#4FFFB0" stroke-width="10" opacity="0.5"/><circle cx="605.37" cy="191.37" r="58.74" stroke="none" fill="#EFEBE0" stroke-width="10" opacity="0.5"/><circle cx="248.37" cy="402.37" r="58.74" stroke="none" fill="#1CAC78" stroke-width="10" opacity="0.5"/><circle cx="337.37" cy="404.37" r="58.74" stroke="none" fill="#1CAC78" stroke-width="10" opacity="0.5"/><circle cx="306.5" cy="220.5" r="69" stroke="none" fill="#4FFFB0" stroke-width="10" opacity="0.5"/><circle cx="123" cy="100" r="62" stroke="none" fill="#EFEBE0" stroke-width="10" opacity="0.5"/><circle cx="73" cy="271" r="108" stroke="none" fill="#1CAC78" stroke-width="10" opacity="0.5"/><circle cx="437.5" cy="394.5" r="79" stroke="none" fill="#1CAC78" stroke-width="10" opacity="0.5"/><circle cx="386.5" cy="72.5" r="87" stroke="none" fill="#4FFFB0" stroke-width="10" opacity="0.5"/><circle cx="53.370000000000005" cy="249.37" r="58.74" stroke="none" fill="#EFEBE0" stroke-width="10" opacity="0.5"/><circle cx="86.37" cy="72.37" r="58.74" stroke="none" fill="#1CAC78" stroke-width="10" opacity="0.5"/><circle cx="568" cy="184" r="94" stroke="none" fill="#1CAC78" stroke-width="10" opacity="0.5"/><circle cx="365.5" cy="248.5" r="103" stroke="none" fill="#4FFFB0" stroke-width="10" opacity="0.5"/><circle cx="530.5" cy="222.5" r="63" stroke="none" fill="#EFEBE0" stroke-width="10" opacity="0.5"/><circle cx="289.37" cy="419.37" r="58.74" stroke="none" fill="#1CAC78" stroke-width="10" opacity="0.5"/><circle cx="413" cy="409" r="88" stroke="none" fill="#1CAC78" stroke-width="10" opacity="0.5"/><circle cx="482.5" cy="452.5" r="91" stroke="none" fill="#4FFFB0" stroke-width="10" opacity="0.5"/><circle cx="228.5" cy="354.5" r="67" stroke="none" fill="#EFEBE0" stroke-width="10" opacity="0.5"/><circle cx="181.37" cy="237.37" r="58.74" stroke="none" fill="#1CAC78" stroke-width="10" opacity="0.5"/><circle cx="579" cy="517" r="116" stroke="none" fill="#1CAC78" stroke-width="10" opacity="0.5"/><circle cx="187" cy="174" r="116" stroke="none" fill="#4FFFB0" stroke-width="10" opacity="0.5"/><circle cx="275.37" cy="54.370000000000005" r="58.74" stroke="none" fill="#EFEBE0" stroke-width="10" opacity="0.5"/><circle cx="155.37" cy="441.37" r="58.74" stroke="none" fill="#1CAC78" stroke-width="10" opacity="0.5"/><circle cx="241" cy="136" r="64" stroke="none" fill="#1CAC78" stroke-width="10" opacity="0.5"/><circle cx="191.37" cy="55.370000000000005" r="58.74" stroke="none" fill="#4FFFB0" stroke-width="10" opacity="0.5"/><circle cx="396" cy="76" r="102" stroke="none" fill="#EFEBE0" stroke-width="10" opacity="0.5"/><circle cx="131.5" cy="183.5" r="59" stroke="none" fill="#1CAC78" stroke-width="10" opacity="0.5"/><circle cx="486.5" cy="321.5" r="105" stroke="none" fill="#1CAC78" stroke-width="10" opacity="0.5"/><circle cx="307.5" cy="307.5" r="69" stroke="none" fill="#4FFFB0" stroke-width="10" opacity="0.5"/><circle cx="286.37" cy="93.37" r="58.74" stroke="none" fill="#EFEBE0" stroke-width="10" opacity="0.5"/><circle cx="251.5" cy="309.5" r="73" stroke="none" fill="#1CAC78" stroke-width="10" opacity="0.5"/><circle cx="45.5" cy="426.5" r="73" stroke="none" fill="#1CAC78" stroke-width="10" opacity="0.5"/><circle cx="196.5" cy="388.5" r="97" stroke="none" fill="#4FFFB0" stroke-width="10" opacity="0.5"/><circle cx="528.37" cy="371.37" r="58.74" stroke="none" fill="#EFEBE0" stroke-width="10" opacity="0.5"/><circle cx="414.37" cy="199.37" r="58.74" stroke="none" fill="#1CAC78" stroke-width="10" opacity="0.5"/><circle cx="346.37" cy="251.37" r="58.74" stroke="none" fill="#1CAC78" stroke-width="10" opacity="0.5"/><circle cx="145.5" cy="315.5" r="85" stroke="none" fill="#4FFFB0" stroke-width="10" opacity="0.5"/><circle cx="415.37" cy="374.37" r="58.74" stroke="none" fill="#EFEBE0" stroke-width="10" opacity="0.5"/><circle cx="61.370000000000005" cy="217.37" r="58.74" stroke="none" fill="#1CAC78" stroke-width="10" opacity="0.5"/><circle cx="121.5" cy="152.5" r="113" stroke="none" fill="#1CAC78" stroke-width="10" opacity="0.5"/><circle cx="237" cy="101" r="116" stroke="none" fill="#4FFFB0" stroke-width="10" opacity="0.5"/><circle cx="391.37" cy="269.37" r="58.74" stroke="none" fill="#EFEBE0" stroke-width="10" opacity="0.5"/><circle cx="146.37" cy="469.37" r="58.74" stroke="none" fill="#1CAC78" stroke-width="10" opacity="0.5"/><circle cx="531.37" cy="287.37" r="58.74" stroke="none" fill="#1CAC78" stroke-width="10" opacity="0.5"/></svg>